<svg id="Capa_1" data-name="Capa 1" xmlns="http://www.w3.org/2000/svg" viewBox="0 0 48 48"><defs><style>.cls-1{fill:#2963ff;}</style></defs><path class="cls-1" d="M17,20.58a15.39,15.39,0,0,1,2.2-.35,3.1,3.1,0,0,1,2.5,1.38q6.7,8.59,13.42,17.18l1.78,2.28a3.35,3.35,0,0,1-.36,4.8,3.3,3.3,0,0,1-4.86-.67q-5.53-7.05-11-14.12c-1.16-1.49-2.32-3-3.63-4.45v.7c0,2.76,0,5.52,0,8.28a3.31,3.31,0,0,1-3.33,3.55,3.25,3.25,0,0,1-3.34-3.22c0-1,0-2.07,0-3.11v-28a3.32,3.32,0,0,1,4.35-3.3A3.42,3.42,0,0,1,17,5V20.58Z"/><path class="cls-1" d="M24.54,19.89a3.13,3.13,0,0,1-2.9-1.77,3.2,3.2,0,0,1,.22-3.46c1-1.51,2-3,3.07-4.49.49-.73,1-1.46,1.48-2.16a3.32,3.32,0,0,1,5.52,3.7h0c-1.52,2.29-3.1,4.56-4.67,6.82a3.1,3.1,0,0,1-2.73,1.35"/></svg>