<svg id="Capa_1" data-name="Capa 1" xmlns="http://www.w3.org/2000/svg" viewBox="0 0 48 48"><defs><style>.cls-1{fill:#2963ff;}</style></defs><g id="Capa_2" data-name="Capa 2"><g id="Capa_1-2" data-name="Capa 1-2"><path class="cls-1" d="M18.48,21.33a3.23,3.23,0,1,0-2.28,5.85,3.1,3.1,0,0,0,3.15-1.43,1.24,1.24,0,0,1,1.25-.64A1.21,1.21,0,0,1,21.47,27a5.5,5.5,0,0,1-3.57,2.52,5.68,5.68,0,1,1-1.52-11.21,5.49,5.49,0,0,1,5.06,2.6A1.22,1.22,0,0,1,21,22.74L17,25a1.23,1.23,0,1,1-1.22-2.13c.84-.48,1.68-.94,2.51-1.42l.22-.13"/><path class="cls-1" d="M28.85,27.21A3.24,3.24,0,1,0,25.62,24a3.23,3.23,0,0,0,3.23,3.22h0M34.54,24a5.69,5.69,0,1,1-5.69-5.69A5.7,5.7,0,0,1,34.54,24"/><path class="cls-1" d="M4.28,22.72a5.09,5.09,0,0,1,.83-.13,1.17,1.17,0,0,1,.93.52l5,6.42c.23.28.45.57.67.85a1.25,1.25,0,0,1-.13,1.79,1.23,1.23,0,0,1-1.82-.25Q7.7,29.3,5.64,26.64c-.43-.55-.87-1.11-1.36-1.66v.26c0,1,0,2.07,0,3.1A1.24,1.24,0,0,1,3,29.67a1.22,1.22,0,0,1-1.25-1.21c0-.39,0-.77,0-1.16V16.83A1.24,1.24,0,0,1,3.42,15.6a1.27,1.27,0,0,1,.86,1.32v5.8Z"/><path class="cls-1" d="M41,25.19a15.72,15.72,0,0,1-2.06,0,3.44,3.44,0,0,1-2.87-3.78,3.49,3.49,0,0,1,3.44-3.13h1.63a1.22,1.22,0,1,1,0,2.44c-.51,0-1,0-1.52,0a1,1,0,1,0,0,2.09c1,0,1.91,0,2.86,0a3.46,3.46,0,1,1,.37,6.9c-.57,0-1.14,0-1.7,0a1.22,1.22,0,0,1,0-2.44c.54,0,1.07,0,1.6,0a1,1,0,0,0,1-.81,1,1,0,0,0-.54-1.09,1.45,1.45,0,0,0-.5-.11c-.57,0-1.14,0-1.7,0v0"/><path class="cls-1" d="M7.11,22.46A1.16,1.16,0,0,1,6,21.8a1.19,1.19,0,0,1,.08-1.29l1.15-1.68L7.81,18a1.25,1.25,0,0,1,1.71-.32,1.23,1.23,0,0,1,.35,1.71h0c-.57.86-1.15,1.7-1.74,2.55a1.16,1.16,0,0,1-1,.5"/><path class="cls-1" d="M37.27,28.55a1.22,1.22,0,1,1,1.23-1.22h0a1.21,1.21,0,0,1-1.23,1.22"/><path class="cls-1" d="M45,19.37a1.22,1.22,0,1,1,0,2.44,1.22,1.22,0,1,1,0-2.44h0"/></g></g></svg>